<svg xmlns="http://www.w3.org/2000/svg" width="52.636" height="51.43" viewBox="0 0 52.636 51.43"><defs><style>.a{fill:#d5af80;}</style></defs><path class="a" d="M202.279,447.752l-.155.755.149-.756a.771.771,0,1,0-.3,1.513l.014,0a.787.787,0,0,0,.146.014.771.771,0,0,0,.144-1.529Zm0,0" transform="translate(-180.653 -401.706)"/><path class="a" d="M261.642,450.26l.077.767-.079-.767a.771.771,0,0,0,.078,1.538c.026,0,.053,0,.08,0l.021,0a.771.771,0,0,0-.177-1.532Zm0,0" transform="translate(-234.121 -403.967)"/><path class="a" d="M231.913,451.232H231.9a.767.767,0,0,0-.8.736.775.775,0,0,0,.741.8h.036a.771.771,0,0,0,.034-1.541Zm0,0" transform="translate(-207.343 -404.841)"/><path class="a" d="M173.612,439.839l-.01,0a.767.767,0,0,0-.981.467.773.773,0,1,0,.991-.463Zm0,0" transform="translate(-154.834 -394.577)"/><path class="a" d="M290.933,444.828l.19.747-.192-.747a.771.771,0,1,0,.385,1.493l.02-.005a.771.771,0,0,0-.4-1.489Zm0,0" transform="translate(-260.502 -399.075)"/><path class="a" d="M319.056,435.018l.306.708-.308-.707a.771.771,0,1,0,.616,1.414l.019-.008a.771.771,0,0,0-.632-1.406Zm0,0" transform="translate(-285.837 -390.237)"/><path class="a" d="M147.252,80.232a.771.771,0,1,0-.36-1.452l-.009,0a.77.77,0,0,0,.369,1.447Zm0,0" transform="translate(-131.419 -70.599)"/><path class="a" d="M63.65,164.7a.771.771,0,0,0,1.041-.325l.014-.027a.771.771,0,1,0-1.055.352Zm0,0" transform="translate(-56.735 -146.453)"/><path class="a" d="M52.12,192.494a.77.77,0,0,0,.977-.483l.01-.031a.771.771,0,1,0-.987.514Zm0,0" transform="translate(-46.292 -171.348)"/><path class="a" d="M79.28,139a.77.77,0,0,0,1.077-.17l.01-.014a.771.771,0,0,0-1.255-.9l.621.457-.624-.454A.771.771,0,0,0,79.28,139Zm0,0" transform="translate(-70.845 -123.451)"/><path class="a" d="M121.816,96.37a.774.774,0,1,0-.447-1.4l-.019.014a.772.772,0,0,0,.466,1.387Zm0,0" transform="translate(-108.6 -85.072)"/><path class="a" d="M49.674,310.629a.771.771,0,1,0-.01-.034Zm0,0" transform="translate(-44.533 -277.79)"/><path class="a" d="M99.161,116.155a.774.774,0,1,0-.539-1.322l-.013.013a.77.77,0,0,0,.551,1.309Zm0,0" transform="translate(-88.275 -102.825)"/><path class="a" d="M44.885,280.865a.771.771,0,0,0-1.53.191l0,.031a.771.771,0,0,0,1.526-.222Zm0,0" transform="translate(-38.893 -251.388)"/><path class="a" d="M42.339,251.7h.023a.771.771,0,0,0,.77-.749v-.033a.771.771,0,1,0-.794.781Zm0,0" transform="translate(-37.315 -224.432)"/><path class="a" d="M44.967,221.724a.8.8,0,0,0,.137.012.772.772,0,0,0,.758-.635c0-.011,0-.022.005-.034a.771.771,0,1,0-.9.657Zm0,0" transform="translate(-39.774 -197.548)"/><path class="a" d="M403.057,142.972a.771.771,0,0,0,1.269-.875l-.641.429.639-.433a.771.771,0,0,0-1.277.865Zm0,0" transform="translate(-361.492 -127.181)"/><path class="a" d="M436.626,229.027a.771.771,0,0,0-.68.853l0,.033a.772.772,0,0,0,.763.662.784.784,0,0,0,.11-.008.776.776,0,0,0-.2-1.54Zm0,0" transform="translate(-391.123 -205.478)"/><path class="a" d="M429.67,199.274l0,.01a.771.771,0,0,0,.739.554.759.759,0,0,0,.218-.032.771.771,0,0,0,.522-.957l0-.01a.771.771,0,1,0-1.479.435Zm0,0" transform="translate(-385.469 -177.901)"/><path class="a" d="M418.617,170.078a.775.775,0,0,0,.7.433A.77.77,0,0,0,420,169.4l-.7.326.7-.327a.771.771,0,0,0-1.4.655Zm0,0" transform="translate(-375.505 -151.587)"/><path class="a" d="M383.422,118.669a.776.776,0,1,0-.023-.024Zm0,0" transform="translate(-343.799 -105.286)"/><path class="a" d="M438.11,260.385a.776.776,0,0,0-.066,1.55h.044a.771.771,0,0,0,.769-.728v-.032A.77.77,0,0,0,438.11,260.385Zm0,0" transform="translate(-392.358 -233.616)"/><path class="a" d="M333.954,80.718l.018.01a.768.768,0,0,0,1.038-.317.773.773,0,0,0-.313-1.044l-.373.675.371-.676a.771.771,0,1,0-.741,1.352Zm0,0" transform="translate(-299.262 -71.121)"/><path class="a" d="M360.184,97.729l.012.009a.771.771,0,0,0,.932-1.229l-.005,0a.771.771,0,1,0-.939,1.223Zm0,0" transform="translate(-322.884 -86.441)"/><path class="a" d="M52.16,38.442l-3.619-3.626a1.628,1.628,0,0,0-2.305,0l-.084.084-.238-.238a3.112,3.112,0,0,1-.675-1.01.751.751,0,0,0-.055-.143A3.118,3.118,0,0,1,45,32.463V31.437a.777.777,0,1,0,0-1.371,4.347,4.347,0,0,0-1.274-2.9l-3.511-3.517a4.166,4.166,0,0,0-5.327-.478l-.373-.375V13.978a4.378,4.378,0,0,0-1.086-2.887,3.111,3.111,0,0,1-.773-2.054V8.39h.053a1.632,1.632,0,0,0,1.63-1.63V1.631A1.632,1.632,0,0,0,32.708,0H18.3a1.632,1.632,0,0,0-1.63,1.63V6.76A1.632,1.632,0,0,0,18.3,8.39h.119v.338a3.094,3.094,0,0,1-.91,2.2l-1.555,1.557a4.35,4.35,0,0,0-1.279,3.093v4.974a4.158,4.158,0,0,0,.448,1.879,4.14,4.14,0,0,0-2.705,1.216L8.911,27.167A4.351,4.351,0,0,0,7.632,30.26v2.2a3.093,3.093,0,0,1-.91,2.2l-.235.235,0,0L6.4,34.817a1.628,1.628,0,0,0-2.305,0L.476,38.442a1.635,1.635,0,0,0,0,2.306l1.24,1.241A.771.771,0,1,0,2.806,40.9L1.567,39.658a.089.089,0,0,1,0-.126l3.62-3.626a.086.086,0,0,1,.122,0l.629.63h0l8.593,8.608.963.965a.089.089,0,0,1,0,.126l-3.619,3.626a.087.087,0,0,1-.123,0L4.989,43.087A.771.771,0,1,0,3.9,44.176l6.763,6.774a1.628,1.628,0,0,0,2.305,0l3.619-3.626a1.634,1.634,0,0,0,0-2.306l-.039-.039L17,44.522a3.1,3.1,0,0,1,1.995-.9,4.363,4.363,0,0,0,2.807-1.273l3.325-3.332A2.64,2.64,0,0,0,27.039,37,2.629,2.629,0,0,0,30.8,34.623V32.792a2.628,2.628,0,0,0,3.717-2.4V24.983l2.372,2.383a.771.771,0,0,0,1.093-1.088L36,24.291a2.626,2.626,0,0,1,3.122.448l3.511,3.517a2.819,2.819,0,0,1,.828,2v2.2a4.626,4.626,0,0,0,1.36,3.29l.239.24-1.118,1.12-6.764,6.776L36.8,43.51,36.79,43.5l-.066-.067a4.642,4.642,0,0,0-2.986-1.353,2.828,2.828,0,0,1-1.818-.825l-2.534-2.52A.771.771,0,1,0,28.3,39.827l2.532,2.518a4.363,4.363,0,0,0,2.808,1.273,3.1,3.1,0,0,1,1.994.9l.037.037a.742.742,0,0,0,.064.064l.355.356-.039.04a1.634,1.634,0,0,0,0,2.306l3.619,3.626a1.629,1.629,0,0,0,2.306,0l10.185-10.2a1.634,1.634,0,0,0,0-2.306Zm-6.639-7.667-.014,0-.141-.029ZM20.714,41.256a2.822,2.822,0,0,1-1.816.824,4.643,4.643,0,0,0-2.986,1.353l-.455.456-.41-.41-.016-.016-7.457-7.47.239-.24a4.626,4.626,0,0,0,1.36-3.29v-2.2a2.817,2.817,0,0,1,.828-2l3.511-3.517a2.626,2.626,0,0,1,3.126-.446l-1.981,1.984a.771.771,0,0,0,1.092,1.09L18.116,25v9.626a2.629,2.629,0,0,0,3.771,2.372,2.642,2.642,0,0,0,1.307,1.775ZM32.971,30.4a1.088,1.088,0,1,1-2.176,0v-8.6a.771.771,0,1,0-1.542,0V34.623a1.087,1.087,0,0,1-2.16.18V21.786a.779.779,0,0,0-1.558.009V34.623a2.644,2.644,0,0,0,.016.289v1.554a1.088,1.088,0,1,1-2.175,0V21.777a.771.771,0,0,0-1.542,0V34.622a1.088,1.088,0,1,1-2.175,0V20.28a.771.771,0,1,0-1.542,0v2.653a.757.757,0,0,0-.186.089,2.638,2.638,0,0,1-1.709-2.468V15.579a2.819,2.819,0,0,1,.828-2l1.555-1.557a4.625,4.625,0,0,0,1.361-3.29V8.39h1.55a.771.771,0,0,0,0-1.542H18.3a.088.088,0,0,1-.088-.088V1.631a.088.088,0,0,1,.088-.088h14.4a.088.088,0,0,1,.088.088V6.76a.088.088,0,0,1-.088.088H25.136a.771.771,0,0,0,0,1.542h5.977v.646a4.656,4.656,0,0,0,1.155,3.071,2.835,2.835,0,0,1,.7,1.87Zm18.1,9.263-10.185,10.2a.083.083,0,0,1-.061.026.084.084,0,0,1-.061-.026l-3.619-3.626a.089.089,0,0,1,0-.127l.583-.584h0L43.637,39.6l3.689-3.7a.086.086,0,0,1,.122,0l3.62,3.626a.089.089,0,0,1,0,.126Zm0,0" transform="translate(0 0)"/><path class="a" d="M194.637,32.8a.822.822,0,1,0,.821.822A.823.823,0,0,0,194.637,32.8Zm0,0" transform="translate(-173.891 -29.432)"/><path class="a" d="M456.235,374.688a.822.822,0,1,0,.821.822A.823.823,0,0,0,456.235,374.688Zm0,0" transform="translate(-408.595 -336.168)"/><path class="a" d="M110.653,444.025a.821.821,0,1,0-.821.822A.823.823,0,0,0,110.653,444.025Zm0,0" transform="translate(-97.804 -397.639)"/></svg>