<svg xmlns="http://www.w3.org/2000/svg" width="55.787" height="51.43" viewBox="0 0 55.787 51.43"><defs><style>.a{fill:#d5af80;}</style></defs><g transform="translate(26.802 0)"><g transform="translate(0 0)"><path class="a" d="M247.077,20a1.09,1.09,0,0,0-1.09,1.09v6.482a1.09,1.09,0,1,0,2.179,0V21.09A1.09,1.09,0,0,0,247.077,20Z" transform="translate(-245.987 -20)"/></g></g><g transform="translate(17.251 6.38)"><path class="a" d="M162.8,81.473l-2.607-2.6a1.09,1.09,0,1,0-1.54,1.542l2.607,2.6a1.09,1.09,0,0,0,1.54-1.542Z" transform="translate(-158.33 -78.55)"/></g><g transform="translate(33.585 6.382)"><g transform="translate(0 0)"><path class="a" d="M312.864,78.892a1.09,1.09,0,0,0-1.541,0l-2.772,2.774a1.09,1.09,0,0,0,1.542,1.54l2.772-2.774A1.09,1.09,0,0,0,312.864,78.892Z" transform="translate(-308.233 -78.573)"/></g></g><g transform="translate(0 16.371)"><path class="a" d="M48.65,182.646h-.879a5.521,5.521,0,0,0,1.145-3.372v-1.538a5.551,5.551,0,1,0-11.1,0v1.2l-8.2-8.2a1.643,1.643,0,0,0-1.724-.384,1.643,1.643,0,0,0-1.724.384l-8.2,8.2v-1.2a5.551,5.551,0,0,0-11.1,0v1.538a5.521,5.521,0,0,0,1.145,3.372H7.137A7.145,7.145,0,0,0,0,189.783V204.22a1.09,1.09,0,0,0,1.09,1.09h4.6a1.089,1.089,0,0,0,.313-.046,1.089,1.089,0,0,0,.313.046h12.2a1.09,1.09,0,0,0,1.09-1.09v-3.7a1.09,1.09,0,1,0-2.179,0v2.615H7.409V190.715a1.09,1.09,0,0,0-2.179,0V203.13H2.179V189.783a4.963,4.963,0,0,1,4.958-4.958h7.573a1.086,1.086,0,0,0,.768-.317l0,0L26.8,173.189a12,12,0,0,1-2.047,6.327l-7.131,10.591a1.09,1.09,0,0,0-.186.609v1.193a1.09,1.09,0,0,0,2.179,0v-.86l6.945-10.315a14.26,14.26,0,0,0,1.336-2.485,14.253,14.253,0,0,0,1.336,2.485l6.945,10.315V204.22a1.09,1.09,0,0,0,1.09,1.09h12.2a1.089,1.089,0,0,0,.313-.046,1.089,1.089,0,0,0,.313.046h4.6a1.09,1.09,0,0,0,1.09-1.09V189.783A7.145,7.145,0,0,0,48.65,182.646Zm-32.857-3.372a3.372,3.372,0,1,1-6.743,0v-1.538a3.372,3.372,0,1,1,6.743,0Zm24.2-1.538a3.372,3.372,0,1,1,6.743,0v1.538a3.372,3.372,0,1,1-6.743,0ZM53.608,203.13H50.557v-8.063a1.09,1.09,0,0,0-2.179,0v8.063H38.354V190.715a1.09,1.09,0,0,0-.186-.609l-7.131-10.59a12,12,0,0,1-2.047-6.327l11.317,11.317c.014.014.028.026.041.037a1.084,1.084,0,0,0,.729.282H48.65a4.963,4.963,0,0,1,4.958,4.958V203.13Z" transform="translate(0 -170.252)"/></g><g transform="translate(48.378 35.744)"><path class="a" d="M445.86,348.369a1.089,1.089,0,1,0,.319.77A1.1,1.1,0,0,0,445.86,348.369Z" transform="translate(-444 -348.05)"/></g><g transform="translate(17.433 41.513)"><path class="a" d="M161.86,401.319a1.089,1.089,0,1,0,.319.77A1.1,1.1,0,0,0,161.86,401.319Z" transform="translate(-160 -401)"/></g></svg>