<svg xmlns="http://www.w3.org/2000/svg" width="76.484" height="85" viewBox="0 0 76.484 85"><defs><style>.a{fill:#d5af80;}</style></defs><g transform="translate(-0.055 0.016)"><g transform="translate(0.054 -0.015)"><path class="a" d="M66.608,9.45C55.447.669,45.831-.941,28.509,3.056,23.8,4.141,18.48,5.8,14.643,9.854a26.91,26.91,0,0,0-5.665,9.266,37.635,37.635,0,0,0-1.283,4.633l-.112.49a19.2,19.2,0,0,1-1.252,3.321,8.518,8.518,0,0,0-1.164,4.249,5.409,5.409,0,0,0,2.061,3.156c.693.636,1.149,1.083,1.153,1.491a2.578,2.578,0,0,1-.273.656A4.478,4.478,0,0,0,7.624,38.4a8.623,8.623,0,0,1-1.994,4.6C1.181,47.8-.089,49.454.067,51.165a4.107,4.107,0,0,0,2.065,2.789,10.318,10.318,0,0,0,1.474.858c.609.312,1.63.833,1.7,1.205a2.425,2.425,0,0,1-.157,1.425c-.208.445-.425.827-.613,1.161-.552.977-1.385,2.454-.079,3.556.306.271.83.683,1.307,1.048a3.549,3.549,0,0,0-.455,2.052,2.02,2.02,0,0,0,.831,1.377,10.486,10.486,0,0,0,.991.613c.83.474,1.153.7,1.265,1.133a3.024,3.024,0,0,1-.119,1.586,8.039,8.039,0,0,0,.228,5.052,5.23,5.23,0,0,0,6.161,3.746,114.789,114.789,0,0,0,11.915-3.573c1.955,1.166,3.813,4,5.153,7.895a4.266,4.266,0,0,0,4.025,2.9H64.32a4.249,4.249,0,0,0,3.8-6.141,38.838,38.838,0,0,1-3.258-12.432,24,24,0,0,1,1.841-12.438,30.919,30.919,0,0,1,3.743-5.937c2.8-3.786,5.977-8.073,6.08-15.374a42.538,42.538,0,0,0-1.477-12.03A23.482,23.482,0,0,0,66.608,9.45Zm1.566,37.9a33.519,33.519,0,0,0-4.062,6.492A26.838,26.838,0,0,0,62.05,67.751a41.526,41.526,0,0,0,3.541,13.37,1.416,1.416,0,0,1-1.27,2.031H35.759a1.435,1.435,0,0,1-1.348-.98,20.892,20.892,0,0,0-4.65-8.073l1.058-.371c1.047-.368,1.841-.646,2.232-.77,6.059-1.906,9.09-4.674,9.006-8.2a1.378,1.378,0,0,0-1.449-1.382,1.416,1.416,0,0,0-1.384,1.449c.034,1.46-1.156,3.589-7.028,5.436-.414.13-1.232.418-2.317.8-1.015.357-2.266.8-3.647,1.275h-.011A117.261,117.261,0,0,1,14.09,76a2.5,2.5,0,0,1-2.911-1.9,5.219,5.219,0,0,1-.142-3.471,5.7,5.7,0,0,0,.109-2.936,4.682,4.682,0,0,0-2.6-2.9c-.1-.058-.2-.115-.3-.174a5.142,5.142,0,0,1,.542-.881,1.416,1.416,0,0,0-.272-2.008c-.34-.252-1.147-.86-1.728-1.324.072-.133.153-.283.228-.411.217-.384.466-.829.708-1.336A5.255,5.255,0,0,0,8.1,55.5c-.33-1.738-1.983-2.583-3.194-3.2a8.457,8.457,0,0,1-1.071-.6,7.632,7.632,0,0,1-.936-.768c.024-.819,3.14-4.18,4.815-5.985a11.343,11.343,0,0,0,2.711-6.063,3.577,3.577,0,0,1,.215-.474,4.187,4.187,0,0,0,.579-1.97,4.944,4.944,0,0,0-2.076-3.556c-.567-.524-1.11-1.02-1.171-1.456a9.148,9.148,0,0,1,.946-2.7,21.518,21.518,0,0,0,1.416-3.837l.115-.494a35.466,35.466,0,0,1,1.18-4.291A24.127,24.127,0,0,1,16.7,11.8c3.31-3.5,7.931-4.947,12.442-5.987C47.616,1.552,55.664,4.446,64.86,11.68A20.446,20.446,0,0,1,72.33,22.4,39.678,39.678,0,0,1,73.7,33.621c-.089,6.386-2.729,9.954-5.525,13.73Z" transform="translate(-0.054 -0.985)"/><path class="a" d="M52.7,23.127a5.907,5.907,0,1,0-1.409-2.534A17.344,17.344,0,0,0,47.1,26.029a13.946,13.946,0,0,0-2.935-1.685c-1.2-2.283-.983-5.406-.433-8.015.1,0,.187.028.283.028a5.711,5.711,0,1,0-3-.877,18.709,18.709,0,0,0-.283,7.579Q38.928,22.493,36.769,22c-1.3-.293-2.542-.542-3.708-.753a9.025,9.025,0,0,1-2.6-3.867,5.679,5.679,0,1,0-2.851.312,12.8,12.8,0,0,0,1.2,2.851c-2.8-.411-5.444-.708-7.57-.911a5.688,5.688,0,1,0-.237,2.823c3.017.283,7.082.765,11.138,1.5l.227.042a20.014,20.014,0,0,0-3.766,3.947,5.579,5.579,0,0,0-1.589-.258A5.687,5.687,0,1,0,31.064,29.4a14.632,14.632,0,0,1,4.43-4.078,7.5,7.5,0,0,1,1.047-.467,39.515,39.515,0,0,1,5.875,1.8,1.484,1.484,0,0,0,.135.067l.024.011.023.011a10.035,10.035,0,0,1,3.249,1.945,2.76,2.76,0,0,1,.448.585c.652,1.1.508,2.725-.453,5.128-.525,1.326-1.217,2.707-1.949,4.168-2.5,4.987-5.328,10.639-.763,14.3,5.327,4.262,5.515,18.979,5.138,24.287a1.416,1.416,0,0,0,1.312,1.515h.1a1.416,1.416,0,0,0,1.416-1.316c.061-.84,1.384-20.64-6.191-26.7-2.585-2.072-1.075-5.63,1.524-10.821.632-1.259,1.261-2.549,1.793-3.81a4.138,4.138,0,0,1,3.939,1.133,5.756,5.756,0,1,0,2.2-1.841,8.04,8.04,0,0,0-5.111-2.266,7.334,7.334,0,0,0-.188-4.522A15.407,15.407,0,0,1,52.7,23.127Zm4.059-6.77a2.833,2.833,0,1,1-2.833,2.833A2.833,2.833,0,0,1,56.76,16.357Zm-12.747-8.5a2.833,2.833,0,1,1-2.833,2.833A2.833,2.833,0,0,1,44.013,7.859ZM25.6,12.108a2.833,2.833,0,1,1,2.833,2.833A2.833,2.833,0,0,1,25.6,12.108Zm-9.914,11.33a2.833,2.833,0,1,1,2.833-2.833A2.833,2.833,0,0,1,15.687,23.439Zm11.33,12.747a2.833,2.833,0,1,1,2.833-2.833A2.833,2.833,0,0,1,27.017,36.186Zm32.575,4.249A2.833,2.833,0,1,1,56.76,37.6,2.833,2.833,0,0,1,59.592,40.435Z" transform="translate(4.065 0.66)"/></g></g></svg>