<svg xmlns="http://www.w3.org/2000/svg" width="51.401" height="51.43" viewBox="0 0 51.401 51.43"><defs><style>.a{fill:#d5af80;}</style></defs><path class="a" d="M183.224,192.915l-7.727,7.3-3.708-3.815a1.069,1.069,0,1,0-1.533,1.49l4.448,4.566a1.088,1.088,0,0,0,1.511.032l8.5-8.016a1.068,1.068,0,0,0,.043-1.511,1.094,1.094,0,0,0-1.533-.043Zm0,0" transform="translate(-151.785 -171.977)"/><path class="a" d="M106.887,90.551A16.012,16.012,0,1,0,122.9,106.563,16.027,16.027,0,0,0,106.887,90.551Zm0,29.881a13.869,13.869,0,1,1,13.869-13.869A13.885,13.885,0,0,1,106.887,120.432Zm0,0" transform="translate(-81.181 -80.846)"/><path class="a" d="M48.166,19.821l.354-6.356a1.069,1.069,0,0,0-.589-1.018L42.272,9.586,39.41,3.927a1.088,1.088,0,0,0-1.018-.589l-6.367.343L26.72.176a1.071,1.071,0,0,0-1.179,0l-5.305,3.5-6.355-.354a1.068,1.068,0,0,0-1.018.589L10,9.575,4.342,12.437a1.086,1.086,0,0,0-.589,1.018l.353,6.356L.6,25.116a1.071,1.071,0,0,0,0,1.179L4.1,31.61l-.354,6.356a1.069,1.069,0,0,0,.589,1.018L9.99,41.846,12.852,47.5a1.086,1.086,0,0,0,1.018.589l6.356-.354,5.305,3.5a1.044,1.044,0,0,0,1.179,0l5.305-3.5,6.356.354a1.07,1.07,0,0,0,1.018-.589l2.862-5.659,5.659-2.862a1.087,1.087,0,0,0,.589-1.018l-.354-6.356,3.5-5.305a1.071,1.071,0,0,0,0-1.179ZM46.173,30.732a1.006,1.006,0,0,0-.171.654l.332,6.012-5.348,2.7a1.058,1.058,0,0,0-.471.472l-2.7,5.348L31.8,45.586a1.171,1.171,0,0,0-.654.171L26.131,49.07l-5.016-3.312a1.061,1.061,0,0,0-.589-.182h-.054l-6.013.332-2.7-5.348a1.056,1.056,0,0,0-.472-.471L5.928,37.4l.332-6.012a1.171,1.171,0,0,0-.172-.654L2.777,25.716,6.089,20.7a1,1,0,0,0,.172-.654l-.332-6.013,5.348-2.7a1.057,1.057,0,0,0,.471-.471l2.7-5.348,6.013.332a1.176,1.176,0,0,0,.654-.172l5.016-3.312,5.016,3.312a1,1,0,0,0,.654.172l6.012-.332,2.7,5.348a1.057,1.057,0,0,0,.471.471l5.348,2.7L46,20.046a1.174,1.174,0,0,0,.171.654l3.312,5.016Zm0,0" transform="translate(-0.425 0.001)"/></svg>