<svg xmlns="http://www.w3.org/2000/svg" width="51.443" height="51.43" viewBox="0 0 51.443 51.43"><defs><style>.a{fill:#d5af80;}</style></defs><g transform="translate(0 0.212)"><g transform="translate(0)"><path class="a" d="M50.711,15.346h0l0,0-3.321-.474A.854.854,0,0,1,47,13.342L49.68,11.33a.854.854,0,0,0,.171-1.2l-3.073-4.1a.854.854,0,0,0-1.2-.171L42.9,7.879a.854.854,0,0,1-1.361-.8l.475-3.321a.854.854,0,0,0-.724-.966h0l-5.067-.724a.854.854,0,0,0-.966.724h0L34.782,6.11a.854.854,0,0,1-1.528.392L31.242,3.818a.854.854,0,0,0-1.2-.171L27.482,5.572a16.516,16.516,0,0,0-3.491,0A16.218,16.218,0,0,0,9.69,20.115c-.023.242-.032.481-.044.721H9.39a.854.854,0,0,0-.835.683l-.59,2.8L5.6,22.694a.854.854,0,0,0-1.088.1L1.954,25.354a.854.854,0,0,0-.1,1.087L3.477,28.8l-2.806.59A.854.854,0,0,0,0,30.226V33.64a.854.854,0,0,0,.678.836l2.806.59L1.862,37.424a.854.854,0,0,0,.1,1.087l2.561,2.561a.854.854,0,0,0,1.088.1l2.358-1.626.59,2.806a.854.854,0,0,0,.835.683h3.414a.854.854,0,0,0,.836-.678l.59-2.806,2.358,1.622a.854.854,0,0,0,1.087-.1L19,39.743v2.433a3.4,3.4,0,0,0,1.707,2.94v4.743a3.414,3.414,0,0,0,3.414,3.414h3.414a3.414,3.414,0,0,0,3.414-3.414V45.116a3.4,3.4,0,0,0,1.707-2.94V38.8a4.183,4.183,0,0,1,1.974-3.484,16.382,16.382,0,0,0,2.009-1.536L35.507,32.5a14.531,14.531,0,0,1-1.8,1.375A5.88,5.88,0,0,0,30.955,38.8v3.379a1.707,1.707,0,0,1-1.707,1.707H22.419a1.707,1.707,0,0,1-1.707-1.707V38.727A5.743,5.743,0,0,0,18,33.909,14.468,14.468,0,0,1,25.65,7.191a.927.927,0,0,0-.033.093.854.854,0,0,0,.163.633L27.791,10.6a.836.836,0,0,1,.051.947.848.848,0,0,1-.854.411l-3.321-.475a.854.854,0,0,0-.966.724h0l-.725,5.07a.854.854,0,0,0,.724.966h0l3.321.475a.854.854,0,0,1,.392,1.528l-2.683,2.012a.854.854,0,0,0-.171,1.2l3.073,4.1a.854.854,0,0,0,1.2.171l2.684-2.012a.854.854,0,0,1,1.356.8L31.4,29.833a.854.854,0,0,0,.724.966h0l5.07.725a.946.946,0,0,0,.12.008.854.854,0,0,0,.846-.732l.474-3.32a.854.854,0,0,1,1.528-.392L42.17,29.77a.854.854,0,0,0,1.2.171l4.1-3.073a.854.854,0,0,0,.171-1.2L45.622,22.99a.839.839,0,0,1-.051-.947.829.829,0,0,1,.854-.41l3.321.474a.854.854,0,0,0,.966-.724h0l.724-5.07A.854.854,0,0,0,50.711,15.346ZM22.419,45.591h6.829V47.3H22.419Zm0,3.414h6.829v.854a1.707,1.707,0,0,1-1.707,1.707H24.126a1.707,1.707,0,0,1-1.707-1.707Zm-6.8-14.72a16.134,16.134,0,0,0,1.459,1.063,4.167,4.167,0,0,1,1.72,2.184l-1.831,1.828L15.2,38.137a1.707,1.707,0,0,0-2.639,1.054l-.447,2.131H10.083l-.447-2.128A1.707,1.707,0,0,0,7,38.14L5.222,39.359,3.667,37.807l1.222-1.772A1.707,1.707,0,0,0,3.835,33.4l-2.128-.448V30.919l2.128-.448a1.707,1.707,0,0,0,1.054-2.635L3.667,26.059l1.555-1.552L7,25.729a1.707,1.707,0,0,0,2.638-1.055l.149-.71a16.256,16.256,0,0,0,.677,2.895,5.122,5.122,0,1,0,5.162,7.426Zm-1.326-1.2a3.409,3.409,0,1,1-3.2-4.563h.032A16.166,16.166,0,0,0,14.3,33.082ZM49.137,20.293l-2.475-.353a2.561,2.561,0,0,0-2.411,4.072l1.5,2L43.019,28.06l-1.5-2a2.561,2.561,0,0,0-4.584,1.174l-.346,2.479-3.379-.483.353-2.475a2.561,2.561,0,0,0-4.072-2.411l-2,1.5-2.049-2.732,2-1.5a2.561,2.561,0,0,0-1.174-4.584l-2.475-.353.483-3.379,2.475.353a2.561,2.561,0,0,0,2.411-4.072l-1.5-2,2.732-2.049,1.5,2a2.561,2.561,0,0,0,4.584-1.174l.353-2.475,3.379.482-.353,2.475a2.561,2.561,0,0,0,4.072,2.411l2-1.5,2.049,2.732-2,1.5a2.561,2.561,0,0,0,1.174,4.584l2.475.353Z" transform="translate(0 -2.057)"/></g></g><g transform="translate(29.876 8.12)"><path class="a" d="M286.829,76.171A6.829,6.829,0,1,0,293.658,83,6.829,6.829,0,0,0,286.829,76.171Zm0,11.95A5.122,5.122,0,1,1,291.95,83,5.122,5.122,0,0,1,286.829,88.121Z" transform="translate(-280 -76.171)"/></g><g transform="translate(24.98 37.771)"><rect class="a" width="1.707" height="2.561"/></g><g transform="translate(13.876 9.734)"><path class="a" d="M138.268,110.945a10.243,10.243,0,0,1-1.729-18.21l-.913-1.444a11.95,11.95,0,0,0,2.022,21.243,5.449,5.449,0,0,1,3.5,5.087h1.707A7.142,7.142,0,0,0,138.268,110.945Z" transform="translate(-130.044 -91.291)"/></g><g transform="translate(42.052 31.796)"><rect class="a" width="5.975" height="1.707"/></g><g transform="translate(40.652 36.261)"><g transform="translate(0 0)"><rect class="a" width="1.707" height="6.667" transform="matrix(0.64, -0.768, 0.768, 0.64, 0, 1.312)"/></g></g><g transform="translate(36.93 38.625)"><rect class="a" width="1.707" height="5.975"/></g><g transform="translate(0.872 13.042)"><g transform="translate(0 0)"><rect class="a" width="7.039" height="1.706" transform="translate(0 1.707) rotate(-14.035)"/></g></g><g transform="translate(2.29 4.641)"><g transform="translate(0 0)"><rect class="a" width="1.706" height="7.343" transform="matrix(0.581, -0.814, 0.814, 0.581, 0, 1.388)"/></g></g><g transform="translate(9.603 0)"><g transform="translate(0 0)"><rect class="a" width="1.707" height="7.048" transform="matrix(0.969, -0.248, 0.248, 0.969, 0, 0.423)"/></g></g></svg>